<svg id="visual" viewBox="0 0 960 400" width="960" height="400" xmlns="http://www.w3.org/2000/svg" xmlns:xlink="http://www.w3.org/1999/xlink" version="1.1"><rect x="0" y="0" width="960" height="400" fill="#001220"></rect><defs><linearGradient id="grad1_0" x1="58.3%" y1="0%" x2="100%" y2="100%"><stop offset="2.0000000000000036%" stop-color="#0085a1" stop-opacity="1"></stop><stop offset="98%" stop-color="#0085a1" stop-opacity="1"></stop></linearGradient></defs><defs><linearGradient id="grad1_1" x1="58.3%" y1="0%" x2="100%" y2="100%"><stop offset="2.0000000000000036%" stop-color="#0085a1" stop-opacity="1"></stop><stop offset="98%" stop-color="#0c5b75" stop-opacity="1"></stop></linearGradient></defs><defs><linearGradient id="grad1_2" x1="58.3%" y1="0%" x2="100%" y2="100%"><stop offset="2.0000000000000036%" stop-color="#0b344a" stop-opacity="1"></stop><stop offset="98%" stop-color="#0c5b75" stop-opacity="1"></stop></linearGradient></defs><defs><linearGradient id="grad1_3" x1="58.3%" y1="0%" x2="100%" y2="100%"><stop offset="2.0000000000000036%" stop-color="#0b344a" stop-opacity="1"></stop><stop offset="98%" stop-color="#001220" stop-opacity="1"></stop></linearGradient></defs><defs><linearGradient id="grad2_0" x1="0%" y1="0%" x2="41.7%" y2="100%"><stop offset="2.0000000000000036%" stop-color="#0085a1" stop-opacity="1"></stop><stop offset="98%" stop-color="#0085a1" stop-opacity="1"></stop></linearGradient></defs><defs><linearGradient id="grad2_1" x1="0%" y1="0%" x2="41.7%" y2="100%"><stop offset="2.0000000000000036%" stop-color="#0c5b75" stop-opacity="1"></stop><stop offset="98%" stop-color="#0085a1" stop-opacity="1"></stop></linearGradient></defs><defs><linearGradient id="grad2_2" x1="0%" y1="0%" x2="41.7%" y2="100%"><stop offset="2.0000000000000036%" stop-color="#0c5b75" stop-opacity="1"></stop><stop offset="98%" stop-color="#0b344a" stop-opacity="1"></stop></linearGradient></defs><defs><linearGradient id="grad2_3" x1="0%" y1="0%" x2="41.7%" y2="100%"><stop offset="2.0000000000000036%" stop-color="#001220" stop-opacity="1"></stop><stop offset="98%" stop-color="#0b344a" stop-opacity="1"></stop></linearGradient></defs><g transform="translate(960, 0)"><path d="M0 200C-28 198.9 -56 197.8 -76.5 184.8C-97.1 171.7 -110.2 146.7 -127.3 127.3C-144.4 107.9 -165.5 94.1 -178.3 73.9C-191.1 53.6 -195.5 26.8 -200 0L0 0Z" fill="#072334"></path><path d="M0 150C-21 149.2 -42 148.4 -57.4 138.6C-72.8 128.8 -82.6 110 -95.5 95.5C-108.3 80.9 -124.1 70.6 -133.7 55.4C-143.3 40.2 -146.7 20.1 -150 0L0 0Z" fill="#0d475f"></path><path d="M0 100C-14 99.5 -28 98.9 -38.3 92.4C-48.5 85.9 -55.1 73.3 -63.6 63.6C-72.2 53.9 -82.8 47.1 -89.2 36.9C-95.5 26.8 -97.8 13.4 -100 0L0 0Z" fill="#07708b"></path><path d="M0 50C-7 49.7 -14 49.5 -19.1 46.2C-24.3 42.9 -27.5 36.7 -31.8 31.8C-36.1 27 -41.4 23.5 -44.6 18.5C-47.8 13.4 -48.9 6.7 -50 0L0 0Z" fill="#0085a1"></path></g><g transform="translate(0, 400)"><path d="M0 -200C26 -194.7 52 -189.5 73.9 -178.3C95.7 -167.1 113.5 -150 132.9 -132.9C152.3 -115.8 173.3 -98.7 184.8 -76.5C196.2 -54.4 198.1 -27.2 200 0L0 0Z" fill="#072334"></path><path d="M0 -150C19.5 -146.1 39 -142.1 55.4 -133.7C71.8 -125.4 85.2 -112.5 99.7 -99.7C114.2 -86.9 130 -74 138.6 -57.4C147.2 -40.8 148.6 -20.4 150 0L0 0Z" fill="#0d475f"></path><path d="M0 -100C13 -97.4 26 -94.7 36.9 -89.2C47.9 -83.6 56.8 -75 66.5 -66.5C76.2 -57.9 86.7 -49.3 92.4 -38.3C98.1 -27.2 99.1 -13.6 100 0L0 0Z" fill="#07708b"></path><path d="M0 -50C6.5 -48.7 13 -47.4 18.5 -44.6C23.9 -41.8 28.4 -37.5 33.2 -33.2C38.1 -29 43.3 -24.7 46.2 -19.1C49.1 -13.6 49.5 -6.8 50 0L0 0Z" fill="#0085a1"></path></g></svg>