<svg id="visual" viewBox="0 0 960 300" width="960" height="300" xmlns="http://www.w3.org/2000/svg" xmlns:xlink="http://www.w3.org/1999/xlink" version="1.1"><rect x="0" y="0" width="960" height="300" fill="#fff"></rect><defs><linearGradient id="grad1_0" x1="68.8%" y1="0%" x2="100%" y2="100%"><stop offset="-14.000000000000007%" stop-color="#0085a1" stop-opacity="1"></stop><stop offset="114.00000000000001%" stop-color="#0085a1" stop-opacity="1"></stop></linearGradient></defs><defs><linearGradient id="grad1_1" x1="68.8%" y1="0%" x2="100%" y2="100%"><stop offset="-14.000000000000007%" stop-color="#0085a1" stop-opacity="1"></stop><stop offset="114.00000000000001%" stop-color="#74acc0" stop-opacity="1"></stop></linearGradient></defs><defs><linearGradient id="grad1_2" x1="68.8%" y1="0%" x2="100%" y2="100%"><stop offset="-14.000000000000007%" stop-color="#bbd5df" stop-opacity="1"></stop><stop offset="114.00000000000001%" stop-color="#74acc0" stop-opacity="1"></stop></linearGradient></defs><defs><linearGradient id="grad1_3" x1="68.8%" y1="0%" x2="100%" y2="100%"><stop offset="-14.000000000000007%" stop-color="#bbd5df" stop-opacity="1"></stop><stop offset="114.00000000000001%" stop-color="#ffffff" stop-opacity="1"></stop></linearGradient></defs><defs><linearGradient id="grad2_0" x1="0%" y1="0%" x2="31.3%" y2="100%"><stop offset="-14.000000000000007%" stop-color="#0085a1" stop-opacity="1"></stop><stop offset="114.00000000000001%" stop-color="#0085a1" stop-opacity="1"></stop></linearGradient></defs><defs><linearGradient id="grad2_1" x1="0%" y1="0%" x2="31.3%" y2="100%"><stop offset="-14.000000000000007%" stop-color="#74acc0" stop-opacity="1"></stop><stop offset="114.00000000000001%" stop-color="#0085a1" stop-opacity="1"></stop></linearGradient></defs><defs><linearGradient id="grad2_2" x1="0%" y1="0%" x2="31.3%" y2="100%"><stop offset="-14.000000000000007%" stop-color="#74acc0" stop-opacity="1"></stop><stop offset="114.00000000000001%" stop-color="#bbd5df" stop-opacity="1"></stop></linearGradient></defs><defs><linearGradient id="grad2_3" x1="0%" y1="0%" x2="31.3%" y2="100%"><stop offset="-14.000000000000007%" stop-color="#ffffff" stop-opacity="1"></stop><stop offset="114.00000000000001%" stop-color="#bbd5df" stop-opacity="1"></stop></linearGradient></defs><g transform="translate(960, 0)"><path d="M0 90C-9.7 89.5 -19.5 89 -27.8 85.6C-36.2 82.2 -43.2 75.9 -51.1 70.4C-59.1 64.8 -68.1 60 -72 52.3C-75.9 44.7 -74.9 34.2 -77 25C-79.2 15.8 -84.6 7.9 -90 0L0 0Z" fill="#ddeaef"></path><path d="M0 67.5C-7.3 67.1 -14.6 66.7 -20.9 64.2C-27.1 61.7 -32.4 57 -38.4 52.8C-44.3 48.6 -51 45 -54 39.2C-57 33.5 -56.2 25.7 -57.8 18.8C-59.4 11.9 -63.4 5.9 -67.5 0L0 0Z" fill="#98c1cf"></path><path d="M0 45C-4.9 44.7 -9.7 44.5 -13.9 42.8C-18.1 41.1 -21.6 38 -25.6 35.2C-29.6 32.4 -34 30 -36 26.2C-38 22.3 -37.4 17.1 -38.5 12.5C-39.6 7.9 -42.3 4 -45 0L0 0Z" fill="#4c99b0"></path><path d="M0 22.5C-2.4 22.4 -4.9 22.2 -7 21.4C-9 20.6 -10.8 19 -12.8 17.6C-14.8 16.2 -17 15 -18 13.1C-19 11.2 -18.7 8.6 -19.3 6.3C-19.8 4 -21.1 2 -22.5 0L0 0Z" fill="#0085a1"></path></g><g transform="translate(0, 300)"><path d="M0 -90C10 -90.1 20 -90.3 27.8 -85.6C35.6 -80.9 41.3 -71.3 46.4 -63.9C51.5 -56.5 56.1 -51.2 63.1 -45.8C70.2 -40.5 79.7 -35.1 84.6 -27.5C89.5 -19.9 89.8 -9.9 90 0L0 0Z" fill="#ddeaef"></path><path d="M0 -67.5C7.5 -67.6 15 -67.7 20.9 -64.2C26.7 -60.7 31 -53.5 34.8 -47.9C38.7 -42.4 42 -38.4 47.3 -34.4C52.6 -30.4 59.8 -26.4 63.5 -20.6C67.2 -14.9 67.3 -7.4 67.5 0L0 0Z" fill="#98c1cf"></path><path d="M0 -45C5 -45.1 10 -45.1 13.9 -42.8C17.8 -40.4 20.7 -35.7 23.2 -32C25.8 -28.2 28 -25.6 31.6 -22.9C35.1 -20.3 39.9 -17.6 42.3 -13.8C44.8 -9.9 44.9 -5 45 0L0 0Z" fill="#4c99b0"></path><path d="M0 -22.5C2.5 -22.5 5 -22.6 7 -21.4C8.9 -20.2 10.3 -17.8 11.6 -16C12.9 -14.1 14 -12.8 15.8 -11.5C17.5 -10.1 19.9 -8.8 21.2 -6.9C22.4 -5 22.4 -2.5 22.5 0L0 0Z" fill="#0085a1"></path></g></svg>